<?xml version="1.0" encoding="utf-8"?>
<!DOCTYPE svg PUBLIC "-//W3C//DTD SVG 1.0//EN" "http://www.w3.org/TR/2001/REC-SVG-20010904/DTD/svg10.dtd">
<svg xmlns="http://www.w3.org/2000/svg" xml:space="preserve" xmlns:xlink="http://www.w3.org/1999/xlink" width="74" height="74" viewBox="0 0 74 74">
<desc></desc>
<rect width="74" height="74" fill="#ffffff" cx="0" cy="0" />
<defs>
<rect id="p" width="2" height="2" />
</defs>
<g fill="#000000">
<use x="0" y="0" xlink:href="#p" />
<use x="2" y="0" xlink:href="#p" />
<use x="4" y="0" xlink:href="#p" />
<use x="6" y="0" xlink:href="#p" />
<use x="8" y="0" xlink:href="#p" />
<use x="10" y="0" xlink:href="#p" />
<use x="12" y="0" xlink:href="#p" />
<use x="16" y="0" xlink:href="#p" />
<use x="18" y="0" xlink:href="#p" />
<use x="32" y="0" xlink:href="#p" />
<use x="34" y="0" xlink:href="#p" />
<use x="42" y="0" xlink:href="#p" />
<use x="48" y="0" xlink:href="#p" />
<use x="54" y="0" xlink:href="#p" />
<use x="60" y="0" xlink:href="#p" />
<use x="62" y="0" xlink:href="#p" />
<use x="64" y="0" xlink:href="#p" />
<use x="66" y="0" xlink:href="#p" />
<use x="68" y="0" xlink:href="#p" />
<use x="70" y="0" xlink:href="#p" />
<use x="72" y="0" xlink:href="#p" />
<use x="0" y="2" xlink:href="#p" />
<use x="12" y="2" xlink:href="#p" />
<use x="20" y="2" xlink:href="#p" />
<use x="22" y="2" xlink:href="#p" />
<use x="24" y="2" xlink:href="#p" />
<use x="26" y="2" xlink:href="#p" />
<use x="36" y="2" xlink:href="#p" />
<use x="40" y="2" xlink:href="#p" />
<use x="42" y="2" xlink:href="#p" />
<use x="50" y="2" xlink:href="#p" />
<use x="52" y="2" xlink:href="#p" />
<use x="54" y="2" xlink:href="#p" />
<use x="56" y="2" xlink:href="#p" />
<use x="60" y="2" xlink:href="#p" />
<use x="72" y="2" xlink:href="#p" />
<use x="0" y="4" xlink:href="#p" />
<use x="4" y="4" xlink:href="#p" />
<use x="6" y="4" xlink:href="#p" />
<use x="8" y="4" xlink:href="#p" />
<use x="12" y="4" xlink:href="#p" />
<use x="18" y="4" xlink:href="#p" />
<use x="20" y="4" xlink:href="#p" />
<use x="28" y="4" xlink:href="#p" />
<use x="30" y="4" xlink:href="#p" />
<use x="32" y="4" xlink:href="#p" />
<use x="34" y="4" xlink:href="#p" />
<use x="36" y="4" xlink:href="#p" />
<use x="38" y="4" xlink:href="#p" />
<use x="40" y="4" xlink:href="#p" />
<use x="42" y="4" xlink:href="#p" />
<use x="46" y="4" xlink:href="#p" />
<use x="56" y="4" xlink:href="#p" />
<use x="60" y="4" xlink:href="#p" />
<use x="64" y="4" xlink:href="#p" />
<use x="66" y="4" xlink:href="#p" />
<use x="68" y="4" xlink:href="#p" />
<use x="72" y="4" xlink:href="#p" />
<use x="0" y="6" xlink:href="#p" />
<use x="4" y="6" xlink:href="#p" />
<use x="6" y="6" xlink:href="#p" />
<use x="8" y="6" xlink:href="#p" />
<use x="12" y="6" xlink:href="#p" />
<use x="16" y="6" xlink:href="#p" />
<use x="18" y="6" xlink:href="#p" />
<use x="22" y="6" xlink:href="#p" />
<use x="26" y="6" xlink:href="#p" />
<use x="28" y="6" xlink:href="#p" />
<use x="30" y="6" xlink:href="#p" />
<use x="32" y="6" xlink:href="#p" />
<use x="38" y="6" xlink:href="#p" />
<use x="40" y="6" xlink:href="#p" />
<use x="42" y="6" xlink:href="#p" />
<use x="44" y="6" xlink:href="#p" />
<use x="52" y="6" xlink:href="#p" />
<use x="60" y="6" xlink:href="#p" />
<use x="64" y="6" xlink:href="#p" />
<use x="66" y="6" xlink:href="#p" />
<use x="68" y="6" xlink:href="#p" />
<use x="72" y="6" xlink:href="#p" />
<use x="0" y="8" xlink:href="#p" />
<use x="4" y="8" xlink:href="#p" />
<use x="6" y="8" xlink:href="#p" />
<use x="8" y="8" xlink:href="#p" />
<use x="12" y="8" xlink:href="#p" />
<use x="18" y="8" xlink:href="#p" />
<use x="20" y="8" xlink:href="#p" />
<use x="22" y="8" xlink:href="#p" />
<use x="24" y="8" xlink:href="#p" />
<use x="26" y="8" xlink:href="#p" />
<use x="28" y="8" xlink:href="#p" />
<use x="30" y="8" xlink:href="#p" />
<use x="32" y="8" xlink:href="#p" />
<use x="36" y="8" xlink:href="#p" />
<use x="38" y="8" xlink:href="#p" />
<use x="40" y="8" xlink:href="#p" />
<use x="42" y="8" xlink:href="#p" />
<use x="44" y="8" xlink:href="#p" />
<use x="46" y="8" xlink:href="#p" />
<use x="48" y="8" xlink:href="#p" />
<use x="54" y="8" xlink:href="#p" />
<use x="56" y="8" xlink:href="#p" />
<use x="60" y="8" xlink:href="#p" />
<use x="64" y="8" xlink:href="#p" />
<use x="66" y="8" xlink:href="#p" />
<use x="68" y="8" xlink:href="#p" />
<use x="72" y="8" xlink:href="#p" />
<use x="0" y="10" xlink:href="#p" />
<use x="12" y="10" xlink:href="#p" />
<use x="18" y="10" xlink:href="#p" />
<use x="20" y="10" xlink:href="#p" />
<use x="22" y="10" xlink:href="#p" />
<use x="24" y="10" xlink:href="#p" />
<use x="28" y="10" xlink:href="#p" />
<use x="32" y="10" xlink:href="#p" />
<use x="34" y="10" xlink:href="#p" />
<use x="38" y="10" xlink:href="#p" />
<use x="40" y="10" xlink:href="#p" />
<use x="42" y="10" xlink:href="#p" />
<use x="48" y="10" xlink:href="#p" />
<use x="50" y="10" xlink:href="#p" />
<use x="54" y="10" xlink:href="#p" />
<use x="56" y="10" xlink:href="#p" />
<use x="60" y="10" xlink:href="#p" />
<use x="72" y="10" xlink:href="#p" />
<use x="0" y="12" xlink:href="#p" />
<use x="2" y="12" xlink:href="#p" />
<use x="4" y="12" xlink:href="#p" />
<use x="6" y="12" xlink:href="#p" />
<use x="8" y="12" xlink:href="#p" />
<use x="10" y="12" xlink:href="#p" />
<use x="12" y="12" xlink:href="#p" />
<use x="16" y="12" xlink:href="#p" />
<use x="20" y="12" xlink:href="#p" />
<use x="24" y="12" xlink:href="#p" />
<use x="28" y="12" xlink:href="#p" />
<use x="32" y="12" xlink:href="#p" />
<use x="36" y="12" xlink:href="#p" />
<use x="40" y="12" xlink:href="#p" />
<use x="44" y="12" xlink:href="#p" />
<use x="48" y="12" xlink:href="#p" />
<use x="52" y="12" xlink:href="#p" />
<use x="56" y="12" xlink:href="#p" />
<use x="60" y="12" xlink:href="#p" />
<use x="62" y="12" xlink:href="#p" />
<use x="64" y="12" xlink:href="#p" />
<use x="66" y="12" xlink:href="#p" />
<use x="68" y="12" xlink:href="#p" />
<use x="70" y="12" xlink:href="#p" />
<use x="72" y="12" xlink:href="#p" />
<use x="18" y="14" xlink:href="#p" />
<use x="20" y="14" xlink:href="#p" />
<use x="22" y="14" xlink:href="#p" />
<use x="24" y="14" xlink:href="#p" />
<use x="28" y="14" xlink:href="#p" />
<use x="32" y="14" xlink:href="#p" />
<use x="36" y="14" xlink:href="#p" />
<use x="44" y="14" xlink:href="#p" />
<use x="46" y="14" xlink:href="#p" />
<use x="48" y="14" xlink:href="#p" />
<use x="50" y="14" xlink:href="#p" />
<use x="52" y="14" xlink:href="#p" />
<use x="56" y="14" xlink:href="#p" />
<use x="4" y="16" xlink:href="#p" />
<use x="8" y="16" xlink:href="#p" />
<use x="10" y="16" xlink:href="#p" />
<use x="12" y="16" xlink:href="#p" />
<use x="16" y="16" xlink:href="#p" />
<use x="22" y="16" xlink:href="#p" />
<use x="28" y="16" xlink:href="#p" />
<use x="30" y="16" xlink:href="#p" />
<use x="32" y="16" xlink:href="#p" />
<use x="38" y="16" xlink:href="#p" />
<use x="40" y="16" xlink:href="#p" />
<use x="42" y="16" xlink:href="#p" />
<use x="44" y="16" xlink:href="#p" />
<use x="46" y="16" xlink:href="#p" />
<use x="52" y="16" xlink:href="#p" />
<use x="54" y="16" xlink:href="#p" />
<use x="56" y="16" xlink:href="#p" />
<use x="58" y="16" xlink:href="#p" />
<use x="66" y="16" xlink:href="#p" />
<use x="72" y="16" xlink:href="#p" />
<use x="2" y="18" xlink:href="#p" />
<use x="4" y="18" xlink:href="#p" />
<use x="6" y="18" xlink:href="#p" />
<use x="10" y="18" xlink:href="#p" />
<use x="14" y="18" xlink:href="#p" />
<use x="16" y="18" xlink:href="#p" />
<use x="20" y="18" xlink:href="#p" />
<use x="26" y="18" xlink:href="#p" />
<use x="30" y="18" xlink:href="#p" />
<use x="38" y="18" xlink:href="#p" />
<use x="42" y="18" xlink:href="#p" />
<use x="52" y="18" xlink:href="#p" />
<use x="54" y="18" xlink:href="#p" />
<use x="56" y="18" xlink:href="#p" />
<use x="58" y="18" xlink:href="#p" />
<use x="62" y="18" xlink:href="#p" />
<use x="70" y="18" xlink:href="#p" />
<use x="72" y="18" xlink:href="#p" />
<use x="4" y="20" xlink:href="#p" />
<use x="12" y="20" xlink:href="#p" />
<use x="14" y="20" xlink:href="#p" />
<use x="22" y="20" xlink:href="#p" />
<use x="24" y="20" xlink:href="#p" />
<use x="30" y="20" xlink:href="#p" />
<use x="32" y="20" xlink:href="#p" />
<use x="34" y="20" xlink:href="#p" />
<use x="36" y="20" xlink:href="#p" />
<use x="38" y="20" xlink:href="#p" />
<use x="40" y="20" xlink:href="#p" />
<use x="44" y="20" xlink:href="#p" />
<use x="50" y="20" xlink:href="#p" />
<use x="54" y="20" xlink:href="#p" />
<use x="56" y="20" xlink:href="#p" />
<use x="60" y="20" xlink:href="#p" />
<use x="62" y="20" xlink:href="#p" />
<use x="64" y="20" xlink:href="#p" />
<use x="66" y="20" xlink:href="#p" />
<use x="68" y="20" xlink:href="#p" />
<use x="70" y="20" xlink:href="#p" />
<use x="72" y="20" xlink:href="#p" />
<use x="0" y="22" xlink:href="#p" />
<use x="4" y="22" xlink:href="#p" />
<use x="14" y="22" xlink:href="#p" />
<use x="18" y="22" xlink:href="#p" />
<use x="20" y="22" xlink:href="#p" />
<use x="22" y="22" xlink:href="#p" />
<use x="32" y="22" xlink:href="#p" />
<use x="34" y="22" xlink:href="#p" />
<use x="38" y="22" xlink:href="#p" />
<use x="40" y="22" xlink:href="#p" />
<use x="44" y="22" xlink:href="#p" />
<use x="46" y="22" xlink:href="#p" />
<use x="48" y="22" xlink:href="#p" />
<use x="50" y="22" xlink:href="#p" />
<use x="52" y="22" xlink:href="#p" />
<use x="56" y="22" xlink:href="#p" />
<use x="58" y="22" xlink:href="#p" />
<use x="62" y="22" xlink:href="#p" />
<use x="70" y="22" xlink:href="#p" />
<use x="72" y="22" xlink:href="#p" />
<use x="0" y="24" xlink:href="#p" />
<use x="2" y="24" xlink:href="#p" />
<use x="12" y="24" xlink:href="#p" />
<use x="14" y="24" xlink:href="#p" />
<use x="16" y="24" xlink:href="#p" />
<use x="18" y="24" xlink:href="#p" />
<use x="28" y="24" xlink:href="#p" />
<use x="34" y="24" xlink:href="#p" />
<use x="36" y="24" xlink:href="#p" />
<use x="38" y="24" xlink:href="#p" />
<use x="44" y="24" xlink:href="#p" />
<use x="48" y="24" xlink:href="#p" />
<use x="50" y="24" xlink:href="#p" />
<use x="54" y="24" xlink:href="#p" />
<use x="56" y="24" xlink:href="#p" />
<use x="58" y="24" xlink:href="#p" />
<use x="60" y="24" xlink:href="#p" />
<use x="62" y="24" xlink:href="#p" />
<use x="66" y="24" xlink:href="#p" />
<use x="70" y="24" xlink:href="#p" />
<use x="0" y="26" xlink:href="#p" />
<use x="2" y="26" xlink:href="#p" />
<use x="6" y="26" xlink:href="#p" />
<use x="8" y="26" xlink:href="#p" />
<use x="14" y="26" xlink:href="#p" />
<use x="16" y="26" xlink:href="#p" />
<use x="20" y="26" xlink:href="#p" />
<use x="22" y="26" xlink:href="#p" />
<use x="24" y="26" xlink:href="#p" />
<use x="28" y="26" xlink:href="#p" />
<use x="30" y="26" xlink:href="#p" />
<use x="32" y="26" xlink:href="#p" />
<use x="34" y="26" xlink:href="#p" />
<use x="38" y="26" xlink:href="#p" />
<use x="42" y="26" xlink:href="#p" />
<use x="44" y="26" xlink:href="#p" />
<use x="46" y="26" xlink:href="#p" />
<use x="50" y="26" xlink:href="#p" />
<use x="52" y="26" xlink:href="#p" />
<use x="56" y="26" xlink:href="#p" />
<use x="60" y="26" xlink:href="#p" />
<use x="66" y="26" xlink:href="#p" />
<use x="68" y="26" xlink:href="#p" />
<use x="70" y="26" xlink:href="#p" />
<use x="72" y="26" xlink:href="#p" />
<use x="4" y="28" xlink:href="#p" />
<use x="6" y="28" xlink:href="#p" />
<use x="8" y="28" xlink:href="#p" />
<use x="12" y="28" xlink:href="#p" />
<use x="14" y="28" xlink:href="#p" />
<use x="18" y="28" xlink:href="#p" />
<use x="20" y="28" xlink:href="#p" />
<use x="24" y="28" xlink:href="#p" />
<use x="26" y="28" xlink:href="#p" />
<use x="28" y="28" xlink:href="#p" />
<use x="36" y="28" xlink:href="#p" />
<use x="38" y="28" xlink:href="#p" />
<use x="44" y="28" xlink:href="#p" />
<use x="46" y="28" xlink:href="#p" />
<use x="52" y="28" xlink:href="#p" />
<use x="56" y="28" xlink:href="#p" />
<use x="58" y="28" xlink:href="#p" />
<use x="62" y="28" xlink:href="#p" />
<use x="68" y="28" xlink:href="#p" />
<use x="72" y="28" xlink:href="#p" />
<use x="0" y="30" xlink:href="#p" />
<use x="8" y="30" xlink:href="#p" />
<use x="10" y="30" xlink:href="#p" />
<use x="20" y="30" xlink:href="#p" />
<use x="22" y="30" xlink:href="#p" />
<use x="24" y="30" xlink:href="#p" />
<use x="32" y="30" xlink:href="#p" />
<use x="34" y="30" xlink:href="#p" />
<use x="36" y="30" xlink:href="#p" />
<use x="38" y="30" xlink:href="#p" />
<use x="40" y="30" xlink:href="#p" />
<use x="42" y="30" xlink:href="#p" />
<use x="44" y="30" xlink:href="#p" />
<use x="46" y="30" xlink:href="#p" />
<use x="50" y="30" xlink:href="#p" />
<use x="54" y="30" xlink:href="#p" />
<use x="56" y="30" xlink:href="#p" />
<use x="64" y="30" xlink:href="#p" />
<use x="72" y="30" xlink:href="#p" />
<use x="2" y="32" xlink:href="#p" />
<use x="6" y="32" xlink:href="#p" />
<use x="10" y="32" xlink:href="#p" />
<use x="12" y="32" xlink:href="#p" />
<use x="18" y="32" xlink:href="#p" />
<use x="22" y="32" xlink:href="#p" />
<use x="24" y="32" xlink:href="#p" />
<use x="28" y="32" xlink:href="#p" />
<use x="42" y="32" xlink:href="#p" />
<use x="50" y="32" xlink:href="#p" />
<use x="54" y="32" xlink:href="#p" />
<use x="58" y="32" xlink:href="#p" />
<use x="60" y="32" xlink:href="#p" />
<use x="66" y="32" xlink:href="#p" />
<use x="72" y="32" xlink:href="#p" />
<use x="0" y="34" xlink:href="#p" />
<use x="2" y="34" xlink:href="#p" />
<use x="10" y="34" xlink:href="#p" />
<use x="16" y="34" xlink:href="#p" />
<use x="18" y="34" xlink:href="#p" />
<use x="22" y="34" xlink:href="#p" />
<use x="24" y="34" xlink:href="#p" />
<use x="26" y="34" xlink:href="#p" />
<use x="30" y="34" xlink:href="#p" />
<use x="32" y="34" xlink:href="#p" />
<use x="36" y="34" xlink:href="#p" />
<use x="38" y="34" xlink:href="#p" />
<use x="40" y="34" xlink:href="#p" />
<use x="42" y="34" xlink:href="#p" />
<use x="44" y="34" xlink:href="#p" />
<use x="48" y="34" xlink:href="#p" />
<use x="50" y="34" xlink:href="#p" />
<use x="56" y="34" xlink:href="#p" />
<use x="60" y="34" xlink:href="#p" />
<use x="68" y="34" xlink:href="#p" />
<use x="70" y="34" xlink:href="#p" />
<use x="72" y="34" xlink:href="#p" />
<use x="4" y="36" xlink:href="#p" />
<use x="6" y="36" xlink:href="#p" />
<use x="12" y="36" xlink:href="#p" />
<use x="14" y="36" xlink:href="#p" />
<use x="16" y="36" xlink:href="#p" />
<use x="20" y="36" xlink:href="#p" />
<use x="26" y="36" xlink:href="#p" />
<use x="34" y="36" xlink:href="#p" />
<use x="36" y="36" xlink:href="#p" />
<use x="44" y="36" xlink:href="#p" />
<use x="50" y="36" xlink:href="#p" />
<use x="52" y="36" xlink:href="#p" />
<use x="56" y="36" xlink:href="#p" />
<use x="60" y="36" xlink:href="#p" />
<use x="62" y="36" xlink:href="#p" />
<use x="64" y="36" xlink:href="#p" />
<use x="70" y="36" xlink:href="#p" />
<use x="72" y="36" xlink:href="#p" />
<use x="0" y="38" xlink:href="#p" />
<use x="4" y="38" xlink:href="#p" />
<use x="6" y="38" xlink:href="#p" />
<use x="14" y="38" xlink:href="#p" />
<use x="16" y="38" xlink:href="#p" />
<use x="28" y="38" xlink:href="#p" />
<use x="30" y="38" xlink:href="#p" />
<use x="32" y="38" xlink:href="#p" />
<use x="36" y="38" xlink:href="#p" />
<use x="40" y="38" xlink:href="#p" />
<use x="42" y="38" xlink:href="#p" />
<use x="48" y="38" xlink:href="#p" />
<use x="50" y="38" xlink:href="#p" />
<use x="52" y="38" xlink:href="#p" />
<use x="54" y="38" xlink:href="#p" />
<use x="56" y="38" xlink:href="#p" />
<use x="60" y="38" xlink:href="#p" />
<use x="62" y="38" xlink:href="#p" />
<use x="64" y="38" xlink:href="#p" />
<use x="0" y="40" xlink:href="#p" />
<use x="2" y="40" xlink:href="#p" />
<use x="4" y="40" xlink:href="#p" />
<use x="6" y="40" xlink:href="#p" />
<use x="10" y="40" xlink:href="#p" />
<use x="12" y="40" xlink:href="#p" />
<use x="14" y="40" xlink:href="#p" />
<use x="16" y="40" xlink:href="#p" />
<use x="22" y="40" xlink:href="#p" />
<use x="26" y="40" xlink:href="#p" />
<use x="28" y="40" xlink:href="#p" />
<use x="32" y="40" xlink:href="#p" />
<use x="34" y="40" xlink:href="#p" />
<use x="36" y="40" xlink:href="#p" />
<use x="50" y="40" xlink:href="#p" />
<use x="52" y="40" xlink:href="#p" />
<use x="54" y="40" xlink:href="#p" />
<use x="56" y="40" xlink:href="#p" />
<use x="58" y="40" xlink:href="#p" />
<use x="60" y="40" xlink:href="#p" />
<use x="62" y="40" xlink:href="#p" />
<use x="66" y="40" xlink:href="#p" />
<use x="70" y="40" xlink:href="#p" />
<use x="72" y="40" xlink:href="#p" />
<use x="0" y="42" xlink:href="#p" />
<use x="2" y="42" xlink:href="#p" />
<use x="6" y="42" xlink:href="#p" />
<use x="10" y="42" xlink:href="#p" />
<use x="16" y="42" xlink:href="#p" />
<use x="18" y="42" xlink:href="#p" />
<use x="22" y="42" xlink:href="#p" />
<use x="28" y="42" xlink:href="#p" />
<use x="30" y="42" xlink:href="#p" />
<use x="32" y="42" xlink:href="#p" />
<use x="36" y="42" xlink:href="#p" />
<use x="38" y="42" xlink:href="#p" />
<use x="40" y="42" xlink:href="#p" />
<use x="44" y="42" xlink:href="#p" />
<use x="48" y="42" xlink:href="#p" />
<use x="58" y="42" xlink:href="#p" />
<use x="60" y="42" xlink:href="#p" />
<use x="66" y="42" xlink:href="#p" />
<use x="68" y="42" xlink:href="#p" />
<use x="70" y="42" xlink:href="#p" />
<use x="72" y="42" xlink:href="#p" />
<use x="2" y="44" xlink:href="#p" />
<use x="6" y="44" xlink:href="#p" />
<use x="8" y="44" xlink:href="#p" />
<use x="10" y="44" xlink:href="#p" />
<use x="12" y="44" xlink:href="#p" />
<use x="20" y="44" xlink:href="#p" />
<use x="22" y="44" xlink:href="#p" />
<use x="26" y="44" xlink:href="#p" />
<use x="30" y="44" xlink:href="#p" />
<use x="32" y="44" xlink:href="#p" />
<use x="36" y="44" xlink:href="#p" />
<use x="42" y="44" xlink:href="#p" />
<use x="46" y="44" xlink:href="#p" />
<use x="50" y="44" xlink:href="#p" />
<use x="56" y="44" xlink:href="#p" />
<use x="58" y="44" xlink:href="#p" />
<use x="64" y="44" xlink:href="#p" />
<use x="66" y="44" xlink:href="#p" />
<use x="68" y="44" xlink:href="#p" />
<use x="70" y="44" xlink:href="#p" />
<use x="72" y="44" xlink:href="#p" />
<use x="0" y="46" xlink:href="#p" />
<use x="4" y="46" xlink:href="#p" />
<use x="6" y="46" xlink:href="#p" />
<use x="16" y="46" xlink:href="#p" />
<use x="26" y="46" xlink:href="#p" />
<use x="30" y="46" xlink:href="#p" />
<use x="32" y="46" xlink:href="#p" />
<use x="36" y="46" xlink:href="#p" />
<use x="38" y="46" xlink:href="#p" />
<use x="42" y="46" xlink:href="#p" />
<use x="44" y="46" xlink:href="#p" />
<use x="46" y="46" xlink:href="#p" />
<use x="58" y="46" xlink:href="#p" />
<use x="60" y="46" xlink:href="#p" />
<use x="8" y="48" xlink:href="#p" />
<use x="12" y="48" xlink:href="#p" />
<use x="20" y="48" xlink:href="#p" />
<use x="34" y="48" xlink:href="#p" />
<use x="42" y="48" xlink:href="#p" />
<use x="48" y="48" xlink:href="#p" />
<use x="54" y="48" xlink:href="#p" />
<use x="58" y="48" xlink:href="#p" />
<use x="62" y="48" xlink:href="#p" />
<use x="4" y="50" xlink:href="#p" />
<use x="8" y="50" xlink:href="#p" />
<use x="10" y="50" xlink:href="#p" />
<use x="20" y="50" xlink:href="#p" />
<use x="28" y="50" xlink:href="#p" />
<use x="30" y="50" xlink:href="#p" />
<use x="34" y="50" xlink:href="#p" />
<use x="42" y="50" xlink:href="#p" />
<use x="46" y="50" xlink:href="#p" />
<use x="48" y="50" xlink:href="#p" />
<use x="50" y="50" xlink:href="#p" />
<use x="54" y="50" xlink:href="#p" />
<use x="58" y="50" xlink:href="#p" />
<use x="62" y="50" xlink:href="#p" />
<use x="70" y="50" xlink:href="#p" />
<use x="72" y="50" xlink:href="#p" />
<use x="0" y="52" xlink:href="#p" />
<use x="10" y="52" xlink:href="#p" />
<use x="12" y="52" xlink:href="#p" />
<use x="18" y="52" xlink:href="#p" />
<use x="22" y="52" xlink:href="#p" />
<use x="28" y="52" xlink:href="#p" />
<use x="30" y="52" xlink:href="#p" />
<use x="34" y="52" xlink:href="#p" />
<use x="36" y="52" xlink:href="#p" />
<use x="40" y="52" xlink:href="#p" />
<use x="42" y="52" xlink:href="#p" />
<use x="44" y="52" xlink:href="#p" />
<use x="46" y="52" xlink:href="#p" />
<use x="48" y="52" xlink:href="#p" />
<use x="52" y="52" xlink:href="#p" />
<use x="60" y="52" xlink:href="#p" />
<use x="62" y="52" xlink:href="#p" />
<use x="66" y="52" xlink:href="#p" />
<use x="72" y="52" xlink:href="#p" />
<use x="2" y="54" xlink:href="#p" />
<use x="6" y="54" xlink:href="#p" />
<use x="8" y="54" xlink:href="#p" />
<use x="10" y="54" xlink:href="#p" />
<use x="14" y="54" xlink:href="#p" />
<use x="20" y="54" xlink:href="#p" />
<use x="24" y="54" xlink:href="#p" />
<use x="26" y="54" xlink:href="#p" />
<use x="28" y="54" xlink:href="#p" />
<use x="30" y="54" xlink:href="#p" />
<use x="34" y="54" xlink:href="#p" />
<use x="38" y="54" xlink:href="#p" />
<use x="40" y="54" xlink:href="#p" />
<use x="42" y="54" xlink:href="#p" />
<use x="48" y="54" xlink:href="#p" />
<use x="50" y="54" xlink:href="#p" />
<use x="54" y="54" xlink:href="#p" />
<use x="60" y="54" xlink:href="#p" />
<use x="64" y="54" xlink:href="#p" />
<use x="66" y="54" xlink:href="#p" />
<use x="72" y="54" xlink:href="#p" />
<use x="0" y="56" xlink:href="#p" />
<use x="4" y="56" xlink:href="#p" />
<use x="12" y="56" xlink:href="#p" />
<use x="14" y="56" xlink:href="#p" />
<use x="16" y="56" xlink:href="#p" />
<use x="20" y="56" xlink:href="#p" />
<use x="24" y="56" xlink:href="#p" />
<use x="30" y="56" xlink:href="#p" />
<use x="34" y="56" xlink:href="#p" />
<use x="36" y="56" xlink:href="#p" />
<use x="40" y="56" xlink:href="#p" />
<use x="42" y="56" xlink:href="#p" />
<use x="44" y="56" xlink:href="#p" />
<use x="46" y="56" xlink:href="#p" />
<use x="48" y="56" xlink:href="#p" />
<use x="50" y="56" xlink:href="#p" />
<use x="56" y="56" xlink:href="#p" />
<use x="58" y="56" xlink:href="#p" />
<use x="60" y="56" xlink:href="#p" />
<use x="62" y="56" xlink:href="#p" />
<use x="64" y="56" xlink:href="#p" />
<use x="72" y="56" xlink:href="#p" />
<use x="16" y="58" xlink:href="#p" />
<use x="18" y="58" xlink:href="#p" />
<use x="20" y="58" xlink:href="#p" />
<use x="24" y="58" xlink:href="#p" />
<use x="28" y="58" xlink:href="#p" />
<use x="30" y="58" xlink:href="#p" />
<use x="34" y="58" xlink:href="#p" />
<use x="36" y="58" xlink:href="#p" />
<use x="38" y="58" xlink:href="#p" />
<use x="40" y="58" xlink:href="#p" />
<use x="44" y="58" xlink:href="#p" />
<use x="48" y="58" xlink:href="#p" />
<use x="54" y="58" xlink:href="#p" />
<use x="56" y="58" xlink:href="#p" />
<use x="64" y="58" xlink:href="#p" />
<use x="72" y="58" xlink:href="#p" />
<use x="0" y="60" xlink:href="#p" />
<use x="2" y="60" xlink:href="#p" />
<use x="4" y="60" xlink:href="#p" />
<use x="6" y="60" xlink:href="#p" />
<use x="8" y="60" xlink:href="#p" />
<use x="10" y="60" xlink:href="#p" />
<use x="12" y="60" xlink:href="#p" />
<use x="20" y="60" xlink:href="#p" />
<use x="24" y="60" xlink:href="#p" />
<use x="26" y="60" xlink:href="#p" />
<use x="32" y="60" xlink:href="#p" />
<use x="34" y="60" xlink:href="#p" />
<use x="36" y="60" xlink:href="#p" />
<use x="38" y="60" xlink:href="#p" />
<use x="40" y="60" xlink:href="#p" />
<use x="44" y="60" xlink:href="#p" />
<use x="48" y="60" xlink:href="#p" />
<use x="50" y="60" xlink:href="#p" />
<use x="54" y="60" xlink:href="#p" />
<use x="56" y="60" xlink:href="#p" />
<use x="60" y="60" xlink:href="#p" />
<use x="64" y="60" xlink:href="#p" />
<use x="68" y="60" xlink:href="#p" />
<use x="70" y="60" xlink:href="#p" />
<use x="72" y="60" xlink:href="#p" />
<use x="0" y="62" xlink:href="#p" />
<use x="12" y="62" xlink:href="#p" />
<use x="16" y="62" xlink:href="#p" />
<use x="26" y="62" xlink:href="#p" />
<use x="28" y="62" xlink:href="#p" />
<use x="30" y="62" xlink:href="#p" />
<use x="36" y="62" xlink:href="#p" />
<use x="38" y="62" xlink:href="#p" />
<use x="40" y="62" xlink:href="#p" />
<use x="48" y="62" xlink:href="#p" />
<use x="50" y="62" xlink:href="#p" />
<use x="52" y="62" xlink:href="#p" />
<use x="56" y="62" xlink:href="#p" />
<use x="64" y="62" xlink:href="#p" />
<use x="72" y="62" xlink:href="#p" />
<use x="0" y="64" xlink:href="#p" />
<use x="4" y="64" xlink:href="#p" />
<use x="6" y="64" xlink:href="#p" />
<use x="8" y="64" xlink:href="#p" />
<use x="12" y="64" xlink:href="#p" />
<use x="16" y="64" xlink:href="#p" />
<use x="22" y="64" xlink:href="#p" />
<use x="24" y="64" xlink:href="#p" />
<use x="28" y="64" xlink:href="#p" />
<use x="32" y="64" xlink:href="#p" />
<use x="34" y="64" xlink:href="#p" />
<use x="36" y="64" xlink:href="#p" />
<use x="44" y="64" xlink:href="#p" />
<use x="50" y="64" xlink:href="#p" />
<use x="56" y="64" xlink:href="#p" />
<use x="58" y="64" xlink:href="#p" />
<use x="60" y="64" xlink:href="#p" />
<use x="62" y="64" xlink:href="#p" />
<use x="64" y="64" xlink:href="#p" />
<use x="66" y="64" xlink:href="#p" />
<use x="70" y="64" xlink:href="#p" />
<use x="0" y="66" xlink:href="#p" />
<use x="4" y="66" xlink:href="#p" />
<use x="6" y="66" xlink:href="#p" />
<use x="8" y="66" xlink:href="#p" />
<use x="12" y="66" xlink:href="#p" />
<use x="18" y="66" xlink:href="#p" />
<use x="20" y="66" xlink:href="#p" />
<use x="22" y="66" xlink:href="#p" />
<use x="24" y="66" xlink:href="#p" />
<use x="32" y="66" xlink:href="#p" />
<use x="38" y="66" xlink:href="#p" />
<use x="40" y="66" xlink:href="#p" />
<use x="42" y="66" xlink:href="#p" />
<use x="46" y="66" xlink:href="#p" />
<use x="52" y="66" xlink:href="#p" />
<use x="58" y="66" xlink:href="#p" />
<use x="62" y="66" xlink:href="#p" />
<use x="64" y="66" xlink:href="#p" />
<use x="66" y="66" xlink:href="#p" />
<use x="70" y="66" xlink:href="#p" />
<use x="72" y="66" xlink:href="#p" />
<use x="0" y="68" xlink:href="#p" />
<use x="4" y="68" xlink:href="#p" />
<use x="6" y="68" xlink:href="#p" />
<use x="8" y="68" xlink:href="#p" />
<use x="12" y="68" xlink:href="#p" />
<use x="16" y="68" xlink:href="#p" />
<use x="18" y="68" xlink:href="#p" />
<use x="22" y="68" xlink:href="#p" />
<use x="24" y="68" xlink:href="#p" />
<use x="26" y="68" xlink:href="#p" />
<use x="32" y="68" xlink:href="#p" />
<use x="34" y="68" xlink:href="#p" />
<use x="36" y="68" xlink:href="#p" />
<use x="38" y="68" xlink:href="#p" />
<use x="44" y="68" xlink:href="#p" />
<use x="50" y="68" xlink:href="#p" />
<use x="56" y="68" xlink:href="#p" />
<use x="58" y="68" xlink:href="#p" />
<use x="64" y="68" xlink:href="#p" />
<use x="66" y="68" xlink:href="#p" />
<use x="72" y="68" xlink:href="#p" />
<use x="0" y="70" xlink:href="#p" />
<use x="12" y="70" xlink:href="#p" />
<use x="18" y="70" xlink:href="#p" />
<use x="22" y="70" xlink:href="#p" />
<use x="24" y="70" xlink:href="#p" />
<use x="26" y="70" xlink:href="#p" />
<use x="28" y="70" xlink:href="#p" />
<use x="36" y="70" xlink:href="#p" />
<use x="44" y="70" xlink:href="#p" />
<use x="46" y="70" xlink:href="#p" />
<use x="50" y="70" xlink:href="#p" />
<use x="52" y="70" xlink:href="#p" />
<use x="54" y="70" xlink:href="#p" />
<use x="56" y="70" xlink:href="#p" />
<use x="58" y="70" xlink:href="#p" />
<use x="62" y="70" xlink:href="#p" />
<use x="64" y="70" xlink:href="#p" />
<use x="70" y="70" xlink:href="#p" />
<use x="0" y="72" xlink:href="#p" />
<use x="2" y="72" xlink:href="#p" />
<use x="4" y="72" xlink:href="#p" />
<use x="6" y="72" xlink:href="#p" />
<use x="8" y="72" xlink:href="#p" />
<use x="10" y="72" xlink:href="#p" />
<use x="12" y="72" xlink:href="#p" />
<use x="24" y="72" xlink:href="#p" />
<use x="26" y="72" xlink:href="#p" />
<use x="30" y="72" xlink:href="#p" />
<use x="32" y="72" xlink:href="#p" />
<use x="34" y="72" xlink:href="#p" />
<use x="36" y="72" xlink:href="#p" />
<use x="38" y="72" xlink:href="#p" />
<use x="40" y="72" xlink:href="#p" />
<use x="44" y="72" xlink:href="#p" />
<use x="50" y="72" xlink:href="#p" />
<use x="54" y="72" xlink:href="#p" />
<use x="56" y="72" xlink:href="#p" />
<use x="60" y="72" xlink:href="#p" />
<use x="62" y="72" xlink:href="#p" />
<use x="70" y="72" xlink:href="#p" />
<use x="72" y="72" xlink:href="#p" />
</g>
</svg>